<?xml version="1.0" standalone="no"?>
<!DOCTYPE svg PUBLIC "-//W3C//DTD SVG 20010904//EN"
 "http://www.w3.org/TR/2001/REC-SVG-20010904/DTD/svg10.dtd">
<svg version="1.0" xmlns="http://www.w3.org/2000/svg"
 width="150.000000pt" height="150.000000pt" viewBox="0 0 150.000000 150.000000"
 preserveAspectRatio="xMidYMid meet">
<metadata>
Created by potrace 1.11, written by Peter Selinger 2001-2013
</metadata>
<g transform="translate(0.000000,150.000000) scale(0.100000,-0.100000)"
fill="#000000" stroke="none">
<path d="M545 1476 c-37 -37 -31 -71 13 -71 29 0 32 -2 32 -31 0 -30 -3 -33
-50 -44 -28 -7 -53 -16 -56 -21 -3 -5 -14 -9 -25 -9 -10 0 -19 -4 -19 -10 0
-5 -6 -10 -12 -10 -23 -1 -90 -58 -129 -111 -40 -52 -79 -156 -74 -196 2 -20
-2 -23 -31 -23 -36 0 -41 -10 -36 -72 4 -36 6 -38 40 -38 40 0 38 -9 -4 -16
-81 -13 -77 -8 -71 -80 14 -160 107 -259 285 -305 35 -8 49 -16 42 -23 -5 -5
-10 -56 -10 -113 0 -92 2 -103 20 -113 14 -7 26 -8 39 0 17 8 20 6 26 -21 4
-18 16 -35 31 -41 23 -11 23 -12 5 -24 -28 -20 -32 -50 -9 -73 24 -27 54 -27
70 -1 15 24 28 26 28 5 0 -36 81 -38 92 -3 3 8 12 4 27 -11 24 -24 56 -22 77
5 14 18 6 55 -15 70 -12 9 -7 12 27 15 l41 4 -21 -22 c-18 -19 -19 -27 -10
-47 13 -29 44 -41 70 -27 28 15 33 47 11 74 -18 24 -18 25 6 47 14 13 25 32
25 42 0 16 3 17 20 8 14 -8 26 -8 40 0 18 10 20 21 20 113 0 61 -4 107 -11
114 -8 8 4 14 43 23 64 16 147 51 177 76 61 51 106 151 110 247 2 51 2 51 -64
63 -40 7 -40 8 5 18 23 5 25 9 22 56 -4 48 -5 50 -33 50 -16 0 -29 3 -29 8 -5
83 -50 188 -109 250 -47 49 -146 106 -213 123 -43 10 -48 14 -48 40 0 24 4 28
33 31 39 4 47 33 19 67 -14 18 -29 24 -65 25 -53 1 -83 -21 -89 -64 -3 -22 2
-26 31 -30 24 -4 35 -11 37 -25 3 -20 -2 -20 -125 -20 -127 0 -128 0 -128 22
0 18 5 23 26 23 40 0 49 11 39 46 -9 35 -23 44 -80 51 -30 4 -42 0 -63 -21z
m113 -1367 c34 0 35 -1 15 -11 -13 -6 -23 -18 -24 -27 0 -12 -3 -10 -11 5 -5
12 -20 27 -32 33 -14 8 -15 10 -3 6 10 -3 35 -5 55 -6z m137 -6 c-23 -6 -45
-34 -38 -48 2 -5 -3 -1 -11 9 -9 11 -16 23 -16 27 0 4 -8 10 -17 12 -10 3 9 5
42 5 33 0 51 -3 40 -5z"/>
<path d="M707 1435 c5 -16 81 -14 87 2 3 8 -10 11 -44 10 -32 0 -46 -5 -43
-12z"/>
</g>
</svg>
